<?xml version="1.0" encoding="UTF-8"?>
<!-- Upper — a white up-arrow on a conic sweep through the four palette
     accents. Generated by scripts/gen-icon.mjs; edit there, not here. -->
<svg xmlns="http://www.w3.org/2000/svg" viewBox="0 0 64 64">
  <clipPath id="round">
    <rect width="64" height="64" rx="14"/>
  </clipPath>
  <g clip-path="url(#round)">
    <path d="M32 32 L32.00 -16.00 L35.35 -15.88 Z" fill="rgb(240,72,97)" stroke="rgb(240,72,97)" stroke-width="1" stroke-linejoin="round"/>
    <path d="M32 32 L35.35 -15.88 L38.68 -15.53 Z" fill="rgb(239,69,98)" stroke="rgb(239,69,98)" stroke-width="1" stroke-linejoin="round"/>
    <path d="M32 32 L38.68 -15.53 L41.98 -14.95 Z" fill="rgb(238,66,100)" stroke="rgb(238,66,100)" stroke-width="1" stroke-linejoin="round"/>
    <path d="M32 32 L41.98 -14.95 L45.23 -14.14 Z" fill="rgb(237,63,102)" stroke="rgb(237,63,102)" stroke-width="1" stroke-linejoin="round"/>
    <path d="M32 32 L45.23 -14.14 L48.42 -13.11 Z" fill="rgb(236,61,104)" stroke="rgb(236,61,104)" stroke-width="1" stroke-linejoin="round"/>
    <path d="M32 32 L48.42 -13.11 L51.52 -11.85 Z" fill="rgb(235,58,105)" stroke="rgb(235,58,105)" stroke-width="1" stroke-linejoin="round"/>
    <path d="M32 32 L51.52 -11.85 L54.53 -10.38 Z" fill="rgb(234,55,107)" stroke="rgb(234,55,107)" stroke-width="1" stroke-linejoin="round"/>
    <path d="M32 32 L54.53 -10.38 L57.44 -8.71 Z" fill="rgb(232,52,109)" stroke="rgb(232,52,109)" stroke-width="1" stroke-linejoin="round"/>
    <path d="M32 32 L57.44 -8.71 L60.21 -6.83 Z" fill="rgb(231,50,111)" stroke="rgb(231,50,111)" stroke-width="1" stroke-linejoin="round"/>
    <path d="M32 32 L60.21 -6.83 L62.85 -4.77 Z" fill="rgb(230,47,112)" stroke="rgb(230,47,112)" stroke-width="1" stroke-linejoin="round"/>
    <path d="M32 32 L62.85 -4.77 L65.34 -2.53 Z" fill="rgb(229,44,114)" stroke="rgb(229,44,114)" stroke-width="1" stroke-linejoin="round"/>
    <path d="M32 32 L65.34 -2.53 L67.67 -0.12 Z" fill="rgb(228,42,116)" stroke="rgb(228,42,116)" stroke-width="1" stroke-linejoin="round"/>
    <path d="M32 32 L67.67 -0.12 L69.82 2.45 Z" fill="rgb(227,39,118)" stroke="rgb(227,39,118)" stroke-width="1" stroke-linejoin="round"/>
    <path d="M32 32 L69.82 2.45 L71.79 5.16 Z" fill="rgb(226,36,119)" stroke="rgb(226,36,119)" stroke-width="1" stroke-linejoin="round"/>
    <path d="M32 32 L71.79 5.16 L73.57 8.00 Z" fill="rgb(225,33,121)" stroke="rgb(225,33,121)" stroke-width="1" stroke-linejoin="round"/>
    <path d="M32 32 L73.57 8.00 L75.14 10.96 Z" fill="rgb(220,33,125)" stroke="rgb(220,33,125)" stroke-width="1" stroke-linejoin="round"/>
    <path d="M32 32 L75.14 10.96 L76.50 14.02 Z" fill="rgb(213,36,130)" stroke="rgb(213,36,130)" stroke-width="1" stroke-linejoin="round"/>
    <path d="M32 32 L76.50 14.02 L77.65 17.17 Z" fill="rgb(206,38,135)" stroke="rgb(206,38,135)" stroke-width="1" stroke-linejoin="round"/>
    <path d="M32 32 L77.65 17.17 L78.57 20.39 Z" fill="rgb(199,40,141)" stroke="rgb(199,40,141)" stroke-width="1" stroke-linejoin="round"/>
    <path d="M32 32 L78.57 20.39 L79.27 23.66 Z" fill="rgb(192,43,146)" stroke="rgb(192,43,146)" stroke-width="1" stroke-linejoin="round"/>
    <path d="M32 32 L79.27 23.66 L79.74 26.98 Z" fill="rgb(185,45,151)" stroke="rgb(185,45,151)" stroke-width="1" stroke-linejoin="round"/>
    <path d="M32 32 L79.74 26.98 L79.97 30.32 Z" fill="rgb(178,48,157)" stroke="rgb(178,48,157)" stroke-width="1" stroke-linejoin="round"/>
    <path d="M32 32 L79.97 30.32 L79.97 33.68 Z" fill="rgb(171,50,162)" stroke="rgb(171,50,162)" stroke-width="1" stroke-linejoin="round"/>
    <path d="M32 32 L79.97 33.68 L79.74 37.02 Z" fill="rgb(164,52,167)" stroke="rgb(164,52,167)" stroke-width="1" stroke-linejoin="round"/>
    <path d="M32 32 L79.74 37.02 L79.27 40.34 Z" fill="rgb(157,55,173)" stroke="rgb(157,55,173)" stroke-width="1" stroke-linejoin="round"/>
    <path d="M32 32 L79.27 40.34 L78.57 43.61 Z" fill="rgb(150,57,178)" stroke="rgb(150,57,178)" stroke-width="1" stroke-linejoin="round"/>
    <path d="M32 32 L78.57 43.61 L77.65 46.83 Z" fill="rgb(143,60,183)" stroke="rgb(143,60,183)" stroke-width="1" stroke-linejoin="round"/>
    <path d="M32 32 L77.65 46.83 L76.50 49.98 Z" fill="rgb(136,62,189)" stroke="rgb(136,62,189)" stroke-width="1" stroke-linejoin="round"/>
    <path d="M32 32 L76.50 49.98 L75.14 53.04 Z" fill="rgb(128,64,194)" stroke="rgb(128,64,194)" stroke-width="1" stroke-linejoin="round"/>
    <path d="M32 32 L75.14 53.04 L73.57 56.00 Z" fill="rgb(121,67,199)" stroke="rgb(121,67,199)" stroke-width="1" stroke-linejoin="round"/>
    <path d="M32 32 L73.57 56.00 L71.79 58.84 Z" fill="rgb(114,69,204)" stroke="rgb(114,69,204)" stroke-width="1" stroke-linejoin="round"/>
    <path d="M32 32 L71.79 58.84 L69.82 61.55 Z" fill="rgb(107,72,210)" stroke="rgb(107,72,210)" stroke-width="1" stroke-linejoin="round"/>
    <path d="M32 32 L69.82 61.55 L67.67 64.12 Z" fill="rgb(100,74,215)" stroke="rgb(100,74,215)" stroke-width="1" stroke-linejoin="round"/>
    <path d="M32 32 L67.67 64.12 L65.34 66.53 Z" fill="rgb(93,76,220)" stroke="rgb(93,76,220)" stroke-width="1" stroke-linejoin="round"/>
    <path d="M32 32 L65.34 66.53 L62.85 68.77 Z" fill="rgb(86,79,226)" stroke="rgb(86,79,226)" stroke-width="1" stroke-linejoin="round"/>
    <path d="M32 32 L62.85 68.77 L60.21 70.83 Z" fill="rgb(79,81,231)" stroke="rgb(79,81,231)" stroke-width="1" stroke-linejoin="round"/>
    <path d="M32 32 L60.21 70.83 L57.44 72.71 Z" fill="rgb(72,84,236)" stroke="rgb(72,84,236)" stroke-width="1" stroke-linejoin="round"/>
    <path d="M32 32 L57.44 72.71 L54.53 74.38 Z" fill="rgb(65,86,242)" stroke="rgb(65,86,242)" stroke-width="1" stroke-linejoin="round"/>
    <path d="M32 32 L54.53 74.38 L51.52 75.85 Z" fill="rgb(58,88,247)" stroke="rgb(58,88,247)" stroke-width="1" stroke-linejoin="round"/>
    <path d="M32 32 L51.52 75.85 L48.42 77.11 Z" fill="rgb(51,91,252)" stroke="rgb(51,91,252)" stroke-width="1" stroke-linejoin="round"/>
    <path d="M32 32 L48.42 77.11 L45.23 78.14 Z" fill="rgb(55,91,244)" stroke="rgb(55,91,244)" stroke-width="1" stroke-linejoin="round"/>
    <path d="M32 32 L45.23 78.14 L41.98 78.95 Z" fill="rgb(72,89,221)" stroke="rgb(72,89,221)" stroke-width="1" stroke-linejoin="round"/>
    <path d="M32 32 L41.98 78.95 L38.68 79.53 Z" fill="rgb(89,87,199)" stroke="rgb(89,87,199)" stroke-width="1" stroke-linejoin="round"/>
    <path d="M32 32 L38.68 79.53 L35.35 79.88 Z" fill="rgb(105,85,177)" stroke="rgb(105,85,177)" stroke-width="1" stroke-linejoin="round"/>
    <path d="M32 32 L35.35 79.88 L32.00 80.00 Z" fill="rgb(122,83,154)" stroke="rgb(122,83,154)" stroke-width="1" stroke-linejoin="round"/>
    <path d="M32 32 L32.00 80.00 L28.65 79.88 Z" fill="rgb(139,80,132)" stroke="rgb(139,80,132)" stroke-width="1" stroke-linejoin="round"/>
    <path d="M32 32 L28.65 79.88 L25.32 79.53 Z" fill="rgb(156,78,109)" stroke="rgb(156,78,109)" stroke-width="1" stroke-linejoin="round"/>
    <path d="M32 32 L25.32 79.53 L22.02 78.95 Z" fill="rgb(172,76,87)" stroke="rgb(172,76,87)" stroke-width="1" stroke-linejoin="round"/>
    <path d="M32 32 L22.02 78.95 L18.77 78.14 Z" fill="rgb(189,74,65)" stroke="rgb(189,74,65)" stroke-width="1" stroke-linejoin="round"/>
    <path d="M32 32 L18.77 78.14 L15.58 77.11 Z" fill="rgb(206,72,42)" stroke="rgb(206,72,42)" stroke-width="1" stroke-linejoin="round"/>
    <path d="M32 32 L15.58 77.11 L12.48 75.85 Z" fill="rgb(215,72,32)" stroke="rgb(215,72,32)" stroke-width="1" stroke-linejoin="round"/>
    <path d="M32 32 L12.48 75.85 L9.47 74.38 Z" fill="rgb(216,73,33)" stroke="rgb(216,73,33)" stroke-width="1" stroke-linejoin="round"/>
    <path d="M32 32 L9.47 74.38 L6.56 72.71 Z" fill="rgb(218,74,35)" stroke="rgb(218,74,35)" stroke-width="1" stroke-linejoin="round"/>
    <path d="M32 32 L6.56 72.71 L3.79 70.83 Z" fill="rgb(219,76,36)" stroke="rgb(219,76,36)" stroke-width="1" stroke-linejoin="round"/>
    <path d="M32 32 L3.79 70.83 L1.15 68.77 Z" fill="rgb(221,77,38)" stroke="rgb(221,77,38)" stroke-width="1" stroke-linejoin="round"/>
    <path d="M32 32 L1.15 68.77 L-1.34 66.53 Z" fill="rgb(222,78,40)" stroke="rgb(222,78,40)" stroke-width="1" stroke-linejoin="round"/>
    <path d="M32 32 L-1.34 66.53 L-3.67 64.12 Z" fill="rgb(224,80,41)" stroke="rgb(224,80,41)" stroke-width="1" stroke-linejoin="round"/>
    <path d="M32 32 L-3.67 64.12 L-5.82 61.55 Z" fill="rgb(225,81,43)" stroke="rgb(225,81,43)" stroke-width="1" stroke-linejoin="round"/>
    <path d="M32 32 L-5.82 61.55 L-7.79 58.84 Z" fill="rgb(227,82,44)" stroke="rgb(227,82,44)" stroke-width="1" stroke-linejoin="round"/>
    <path d="M32 32 L-7.79 58.84 L-9.57 56.00 Z" fill="rgb(228,83,46)" stroke="rgb(228,83,46)" stroke-width="1" stroke-linejoin="round"/>
    <path d="M32 32 L-9.57 56.00 L-11.14 53.04 Z" fill="rgb(230,85,47)" stroke="rgb(230,85,47)" stroke-width="1" stroke-linejoin="round"/>
    <path d="M32 32 L-11.14 53.04 L-12.50 49.98 Z" fill="rgb(231,86,49)" stroke="rgb(231,86,49)" stroke-width="1" stroke-linejoin="round"/>
    <path d="M32 32 L-12.50 49.98 L-13.65 46.83 Z" fill="rgb(233,87,51)" stroke="rgb(233,87,51)" stroke-width="1" stroke-linejoin="round"/>
    <path d="M32 32 L-13.65 46.83 L-14.57 43.61 Z" fill="rgb(234,89,52)" stroke="rgb(234,89,52)" stroke-width="1" stroke-linejoin="round"/>
    <path d="M32 32 L-14.57 43.61 L-15.27 40.34 Z" fill="rgb(236,90,54)" stroke="rgb(236,90,54)" stroke-width="1" stroke-linejoin="round"/>
    <path d="M32 32 L-15.27 40.34 L-15.74 37.02 Z" fill="rgb(237,91,55)" stroke="rgb(237,91,55)" stroke-width="1" stroke-linejoin="round"/>
    <path d="M32 32 L-15.74 37.02 L-15.97 33.68 Z" fill="rgb(239,93,57)" stroke="rgb(239,93,57)" stroke-width="1" stroke-linejoin="round"/>
    <path d="M32 32 L-15.97 33.68 L-15.97 30.32 Z" fill="rgb(240,94,58)" stroke="rgb(240,94,58)" stroke-width="1" stroke-linejoin="round"/>
    <path d="M32 32 L-15.97 30.32 L-15.74 26.98 Z" fill="rgb(242,95,60)" stroke="rgb(242,95,60)" stroke-width="1" stroke-linejoin="round"/>
    <path d="M32 32 L-15.74 26.98 L-15.27 23.66 Z" fill="rgb(243,97,61)" stroke="rgb(243,97,61)" stroke-width="1" stroke-linejoin="round"/>
    <path d="M32 32 L-15.27 23.66 L-14.57 20.39 Z" fill="rgb(245,98,63)" stroke="rgb(245,98,63)" stroke-width="1" stroke-linejoin="round"/>
    <path d="M32 32 L-14.57 20.39 L-13.65 17.17 Z" fill="rgb(246,99,65)" stroke="rgb(246,99,65)" stroke-width="1" stroke-linejoin="round"/>
    <path d="M32 32 L-13.65 17.17 L-12.50 14.02 Z" fill="rgb(248,100,66)" stroke="rgb(248,100,66)" stroke-width="1" stroke-linejoin="round"/>
    <path d="M32 32 L-12.50 14.02 L-11.14 10.96 Z" fill="rgb(249,102,68)" stroke="rgb(249,102,68)" stroke-width="1" stroke-linejoin="round"/>
    <path d="M32 32 L-11.14 10.96 L-9.57 8.00 Z" fill="rgb(251,103,69)" stroke="rgb(251,103,69)" stroke-width="1" stroke-linejoin="round"/>
    <path d="M32 32 L-9.57 8.00 L-7.79 5.16 Z" fill="rgb(252,104,71)" stroke="rgb(252,104,71)" stroke-width="1" stroke-linejoin="round"/>
    <path d="M32 32 L-7.79 5.16 L-5.82 2.45 Z" fill="rgb(254,106,72)" stroke="rgb(254,106,72)" stroke-width="1" stroke-linejoin="round"/>
    <path d="M32 32 L-5.82 2.45 L-3.67 -0.12 Z" fill="rgb(255,107,74)" stroke="rgb(255,107,74)" stroke-width="1" stroke-linejoin="round"/>
    <path d="M32 32 L-3.67 -0.12 L-1.34 -2.53 Z" fill="rgb(254,104,76)" stroke="rgb(254,104,76)" stroke-width="1" stroke-linejoin="round"/>
    <path d="M32 32 L-1.34 -2.53 L1.15 -4.77 Z" fill="rgb(253,102,77)" stroke="rgb(253,102,77)" stroke-width="1" stroke-linejoin="round"/>
    <path d="M32 32 L1.15 -4.77 L3.79 -6.83 Z" fill="rgb(252,99,79)" stroke="rgb(252,99,79)" stroke-width="1" stroke-linejoin="round"/>
    <path d="M32 32 L3.79 -6.83 L6.56 -8.71 Z" fill="rgb(250,96,81)" stroke="rgb(250,96,81)" stroke-width="1" stroke-linejoin="round"/>
    <path d="M32 32 L6.56 -8.71 L9.47 -10.38 Z" fill="rgb(249,93,83)" stroke="rgb(249,93,83)" stroke-width="1" stroke-linejoin="round"/>
    <path d="M32 32 L9.47 -10.38 L12.48 -11.85 Z" fill="rgb(248,91,84)" stroke="rgb(248,91,84)" stroke-width="1" stroke-linejoin="round"/>
    <path d="M32 32 L12.48 -11.85 L15.58 -13.11 Z" fill="rgb(247,88,86)" stroke="rgb(247,88,86)" stroke-width="1" stroke-linejoin="round"/>
    <path d="M32 32 L15.58 -13.11 L18.77 -14.14 Z" fill="rgb(246,85,88)" stroke="rgb(246,85,88)" stroke-width="1" stroke-linejoin="round"/>
    <path d="M32 32 L18.77 -14.14 L22.02 -14.95 Z" fill="rgb(245,82,90)" stroke="rgb(245,82,90)" stroke-width="1" stroke-linejoin="round"/>
    <path d="M32 32 L22.02 -14.95 L25.32 -15.53 Z" fill="rgb(244,80,91)" stroke="rgb(244,80,91)" stroke-width="1" stroke-linejoin="round"/>
    <path d="M32 32 L25.32 -15.53 L28.65 -15.88 Z" fill="rgb(243,77,93)" stroke="rgb(243,77,93)" stroke-width="1" stroke-linejoin="round"/>
    <path d="M32 32 L28.65 -15.88 L32.00 -16.00 Z" fill="rgb(241,74,95)" stroke="rgb(241,74,95)" stroke-width="1" stroke-linejoin="round"/>
  </g>
  <path d="M32 11 L55 34 L42 34 L42 55 L22 55 L22 34 L9 34 Z" fill="#FFFDF8"/>
</svg>
